HIERARCHY
ROOT root
{
	OFFSET 0.000000 0.000000 0.000000
	CHANNELS 6 Xposition Yposition Zposition Zrotation Yrotation Xrotation
	JOINT lhip
	{
		OFFSET 0.058581 -0.082280 -0.017664
		CHANNELS 3 Zrotation Yrotation Xrotation
		JOINT lknee
		{
			OFFSET 0.043451 -0.386469 0.008037
			CHANNELS 3 Zrotation Yrotation Xrotation
			JOINT lankle
			{
				OFFSET -0.014790 -0.426874 -0.037428
				CHANNELS 3 Zrotation Yrotation Xrotation
				JOINT ltoe
				{
					OFFSET 0.041054 -0.060286 0.122042
					CHANNELS 3 Zrotation Yrotation Xrotation
					End Site
					{
						OFFSET 0.000000 0.000000 0.000000
					}
				}
			}
		}
	}
	JOINT rhip
	{
		OFFSET -0.060310 -0.090513 -0.013543
		CHANNELS 3 Zrotation Yrotation Xrotation
		JOINT rknee
		{
			OFFSET -0.043257 -0.383688 -0.004843
			CHANNELS 3 Zrotation Yrotation Xrotation
			JOINT rankle
			{
				OFFSET 0.019056 -0.420046 -0.034562
				CHANNELS 3 Zrotation Yrotation Xrotation
				JOINT rtoe
				{
					OFFSET -0.034840 -0.062106 0.130323
					CHANNELS 3 Zrotation Yrotation Xrotation
					End Site
					{
						OFFSET 0.000000 0.000000 0.000000
					}
				}
			}
		}
	}
	JOINT lowerback
	{
		OFFSET 0.004439 0.124404 -0.038385
		CHANNELS 3 Zrotation Yrotation Xrotation
		JOINT upperback
		{
			OFFSET 0.004488 0.137956 0.026820
			CHANNELS 3 Zrotation Yrotation Xrotation
			JOINT chest
			{
				OFFSET -0.002265 0.056032 0.002855
				CHANNELS 3 Zrotation Yrotation Xrotation
				JOINT lowerneck
				{
					OFFSET -0.013390 0.211636 -0.033468
					CHANNELS 3 Zrotation Yrotation Xrotation
					JOINT upperneck
					{
						OFFSET 0.010113 0.088937 0.050410
						CHANNELS 3 Zrotation Yrotation Xrotation
						End Site
						{
							OFFSET 0.000000 0.000000 0.000000
						}
					}
				}
				JOINT lclavicle
				{
					OFFSET 0.071702 0.114000 -0.018898
					CHANNELS 3 Zrotation Yrotation Xrotation
					JOINT lshoulder
					{
						OFFSET 0.122921 0.045205 -0.019046
						CHANNELS 3 Zrotation Yrotation Xrotation
						JOINT lelbow
						{
							OFFSET 0.255332 -0.015649 -0.022946
							CHANNELS 3 Zrotation Yrotation Xrotation
							JOINT lwrist
							{
								OFFSET 0.265709 0.012698 -0.007375
								CHANNELS 3 Zrotation Yrotation Xrotation
								End Site
								{
									OFFSET 0.000000 0.000000 0.000000
								}
							}
						}
					}
				}
				JOINT rclavicle
				{
					OFFSET -0.082954 0.112472 -0.023707
					CHANNELS 3 Zrotation Yrotation Xrotation
					JOINT rshoulder
					{
						OFFSET -0.113228 0.046853 -0.008472
						CHANNELS 3 Zrotation Yrotation Xrotation
						JOINT relbow
						{
							OFFSET -0.260127 -0.014369 -0.031269
							CHANNELS 3 Zrotation Yrotation Xrotation
							JOINT rwrist
							{
								OFFSET -0.269108 0.006794 -0.006027
								CHANNELS 3 Zrotation Yrotation Xrotation
								End Site
								{
									OFFSET 0.000000 0.000000 0.000000
								}
							}
						}
					}
				}
			}
		}
	}
}
MOTION
Frames: 8
Frame Time: 0.033333
0.544678 0.211551 0.992550 87.663405 4.070525 98.713237 10.058836 4.864090 -4.426478 3.199877 4.384353 -7.886319 -6.207679 4.465025 -1.266198 0.000000 -0.000000 0.000000 -0.566685 -0.666993 -10.978068 -0.762429 -3.332822 4.381922 8.697683 0.768490 -5.605119 0.000000 -0.000000 0.000000 -2.040883 -0.302984 -4.192574 3.313599 -4.666973 5.675618 1.123530 3.584409 -12.833648 1.102784 0.472801 9.661576 3.810449 2.108343 8.617431 -11.315884 -21.540554 -5.783602 -72.312330 -37.588575 33.423794 142.192277 -65.460427 -90.778522 47.581754 -16.724291 12.880487 13.384677 23.326610 -1.065015 41.594513 54.021954 9.902817 -143.675818 67.671758 -109.453567 -41.717449 22.431202 -2.912811 
0.545085 0.211005 0.992389 87.306946 4.144526 98.713772 10.087088 4.993696 -4.307020 3.230845 4.382559 -7.916828 -6.035748 4.740130 -1.275505 0.000000 -0.000000 0.000000 -0.510281 -0.693304 -10.938663 -0.661574 -2.879575 4.194913 8.762705 0.654158 -5.378895 0.000000 -0.000000 0.000000 -1.898674 -0.502836 -4.105702 3.378499 -4.887081 5.302965 1.143289 3.556723 -12.654529 1.069088 -0.092922 9.501957 3.940830 2.145245 8.780588 -11.235723 -21.945069 -5.498591 -72.115229 -38.004715 33.250293 142.039310 -65.858999 -90.416410 48.516636 -16.177105 13.055684 13.091420 22.897636 -1.323899 41.672107 53.888247 9.628181 -145.774486 67.438304 -111.622980 -41.572170 20.515279 -1.043300 
0.545381 0.210740 0.992401 87.048421 4.233494 98.748045 10.123378 5.017609 -4.314911 3.298416 4.504672 -7.826873 -5.965624 4.818229 -1.365954 0.000000 -0.000000 0.000000 -0.441233 -0.593368 -10.990628 -0.629133 -2.785021 4.183736 8.774485 0.732779 -5.279777 0.000000 -0.000000 0.000000 -1.800646 -0.752080 -3.978312 3.579242 -5.119152 4.904742 1.258387 3.370320 -12.626911 1.039530 -0.223481 9.509958 3.887580 2.431485 9.018019 -11.231895 -21.889024 -5.425057 -72.377236 -38.050335 33.522904 141.766922 -66.045805 -89.970410 48.961553 -16.080351 13.103856 13.095611 22.546983 -1.563669 41.758252 53.777283 9.856628 -146.212670 67.497243 -112.086242 -41.634796 20.320547 -0.991829 
0.545660 0.210745 0.992280 86.843669 4.263199 98.754906 10.101526 5.034395 -4.293413 3.325369 4.642562 -7.778238 -5.859316 4.904662 -1.503358 0.000000 -0.000000 0.000000 -0.434416 -0.544764 -11.050418 -0.612401 -2.652395 4.233536 8.809809 0.797045 -5.223360 0.000000 -0.000000 0.000000 -1.662293 -0.928819 -3.920952 3.698376 -5.351025 4.684467 1.295696 3.214787 -12.677635 0.907556 -0.406887 9.571611 3.844175 2.619516 9.097464 -11.375288 -21.925102 -5.303610 -72.403654 -38.105034 33.614223 141.447670 -66.211105 -89.531781 49.424300 -16.029786 13.087593 13.205339 22.384308 -1.573334 41.531444 53.682864 9.787035 -146.624033 67.470618 -112.409304 -41.644489 20.109496 -1.012430 
0.546062 0.210927 0.992175 86.569373 4.295699 98.660068 10.039351 5.057105 -4.071161 3.431846 4.774385 -7.830299 -5.693041 4.962933 -1.592631 0.000000 -0.000000 0.000000 -0.443649 -0.432894 -11.028613 -0.599347 -2.509525 4.315174 8.844828 0.869238 -5.181841 0.000000 -0.000000 0.000000 -1.545281 -1.059522 -3.929858 3.793172 -5.472731 4.672488 1.286738 3.155193 -12.771841 0.809182 -0.542873 9.600377 3.899757 2.772439 9.240930 -11.611955 -21.970237 -5.191503 -72.379128 -38.179405 33.743991 141.069185 -66.396738 -89.258150 49.725198 -16.016236 12.923072 13.433951 22.166336 -1.530725 41.373396 53.676213 9.765399 -146.891492 67.549644 -112.505982 -41.508891 20.145174 -0.903996 
0.546452 0.211331 0.992096 86.288018 4.337275 98.591264 10.001637 5.147906 -3.840538 3.474844 4.837079 -7.961361 -5.605550 5.065509 -1.670914 0.000000 -0.000000 0.000000 -0.462505 -0.339815 -11.034034 -0.580375 -2.398206 4.397999 8.887046 0.921841 -5.133472 0.000000 -0.000000 0.000000 -1.484286 -1.179640 -4.005656 3.913357 -5.556416 4.596253 1.327265 3.105923 -12.790601 0.742552 -0.659544 9.628125 4.002010 2.806584 9.404452 -11.723802 -22.061157 -5.089204 -72.461320 -38.197725 33.877090 140.585486 -66.554806 -88.801728 50.235272 -16.125969 12.931527 13.528171 22.023355 -1.583428 41.316930 53.585750 9.809387 -146.975393 67.653499 -112.508318 -41.732459 20.208115 -0.917601 
0.546656 0.211808 0.992059 86.003687 4.358711 98.521866 9.945869 5.187834 -3.703541 3.496435 4.890515 -7.918132 -5.487220 5.180599 -1.778836 0.000000 -0.000000 0.000000 -0.491278 -0.321349 -11.047055 -0.571718 -2.234389 4.478382 8.965103 0.956692 -5.060278 0.000000 -0.000000 0.000000 -1.435031 -1.243719 -4.051184 3.999812 -5.639271 4.424754 1.368697 3.063002 -12.715944 0.792222 -0.627386 9.838681 4.088426 3.097069 9.496827 -11.754904 -22.031944 -5.050971 -72.581897 -38.206060 33.939727 140.273239 -66.734500 -88.565541 50.882224 -16.070280 12.852927 13.424068 21.863152 -1.677811 41.636573 53.571263 10.045319 -146.955258 67.718268 -112.556021 -42.057992 20.286129 -1.024271 
0.546727 0.212549 0.992015 85.701750 4.366713 98.367157 9.875067 5.251520 -3.470446 3.483111 4.990405 -7.907637 -5.353559 5.268963 -1.898709 0.000000 -0.000000 0.000000 -0.545739 -0.350829 -10.989562 -0.556928 -2.043976 4.572604 8.991650 1.046065 -5.050624 0.000000 -0.000000 0.000000 -1.400948 -1.263349 -4.080586 4.066103 -5.682222 4.454960 1.393046 3.026380 -12.758602 0.776170 -0.778879 9.694481 3.968077 3.026786 9.509278 -11.763709 -22.065747 -4.969837 -72.604326 -38.262108 33.944325 140.061790 -66.736956 -88.313948 51.706329 -15.988356 12.938496 13.438911 21.912303 -1.701338 41.793268 53.514460 10.166236 -146.778479 67.728906 -112.526954 -42.131793 20.350355 -0.992626 
